<?xml version="1.0" encoding="iso-8859-1"?>
<!-- Uploaded to: SVG Repo, www.svgrepo.com, Generator: SVG Repo Mixer Tools -->
<svg version="1.1" id="Layer_1" xmlns="http://www.w3.org/2000/svg" xmlns:xlink="http://www.w3.org/1999/xlink" 
	 viewBox="0 0 502.948 502.948" xml:space="preserve">
<g transform="translate(5 5)">
	<path style="fill:#FF7474;" d="M128.287,152.348h250.88l1.707,0.853c-0.853,2.56-1.707,4.267-3.413,6.827l0,0
		c-1.707,2.56-2.56,4.267-4.267,6.827l0,0c-13.653,22.187-36.693,36.693-68.267,36.693c-17.067,0-17.067,68.267-93.867,68.267
		c-76.8,0-76.8-68.267-93.867-68.267c-37.547,0-63.147-20.48-75.947-51.2l0,0L128.287,152.348L128.287,152.348z"/>
	<g transform="translate(34)">
		<defs>
			<filter id="Adobe_OpacityMaskFilter" filterUnits="userSpaceOnUse" x="288.848" y="31.175" width="136.533" height="138.24">
				<feColorMatrix  type="matrix" values="1 0 0 0 0  0 1 0 0 0  0 0 1 0 0  0 0 0 1 0"/>
			</filter>
		</defs>
		<mask maskUnits="userSpaceOnUse" x="288.848" y="31.175" width="136.533" height="138.24" id="mask-2_1_">
			<g style="filter:url(#Adobe_OpacityMaskFilter);">
				<polygon style="fill:#FFFFFF;" points="92.581,126.748 92.581,-9.785 -43.953,-9.785 -43.953,126.748 				"/>
			</g>
		</mask>
		<path style="mask:url(#mask-2_1_);fill:#FFE079;" d="M405.754,149.788c-11.947,11.947-29.013,19.627-48.64,19.627
			c-5.973,0-11.947-0.853-17.067-2.56c1.707-2.56,2.56-4.267,4.267-6.827l0,0c1.707-2.56,2.56-5.12,3.413-7.68
			c0.853-2.56,1.707-4.267,2.56-6.827c0-0.853,0.853-1.707,0.853-2.56c0.853-1.707,0.853-3.413,1.707-5.12
			c0-0.853,0.853-1.707,0.853-3.413c0.853-1.707,0.853-3.413,0.853-5.973c0-1.707,0.853-2.56,0.853-4.267s0.853-3.413,0.853-5.12
			c0-3.413,0.853-5.973,0.853-9.387c0-3.413,0-6.827,0-10.24h-68.267c0-18.773,7.68-35.84,19.627-48.64
			c11.947-11.947,29.013-19.627,48.64-19.627c18.773,0,35.84,7.68,48.64,19.627c11.947,11.947,19.627,29.013,19.627,48.64
			C425.381,119.922,417.701,136.988,405.754,149.788"/>
	</g>
	<path style="fill:#ECF4F7;" d="M128.287,152.348H42.101l0,0c-5.973-15.36-9.387-32.427-9.387-51.2h68.267h221.867h68.267
		c0,3.413,0,6.827,0,10.24c0,3.413-0.853,5.973-0.853,9.387c0,1.707-0.853,3.413-0.853,5.12s0,2.56-0.853,4.267
		c0,1.707-0.853,3.413-1.707,5.973c0,0.853,0,1.707-0.853,3.413c0,1.707-0.853,3.413-1.707,5.12c0,0.853-0.853,1.707-0.853,2.56
		c-0.853,2.56-1.707,4.267-2.56,6.827l0,0l-1.707-0.853h-250.88V152.348z"/>
</g>
<path style="fill:#51565F;" d="M293.714,502.948h-153.6c-2.56,0-4.267-1.707-4.267-4.267s1.707-4.267,4.267-4.267h72.533V281.081
	c-51.2-1.707-69.12-34.133-79.36-53.76c-3.413-6.827-7.68-14.507-10.24-14.507c-54.613,0-89.6-41.813-89.6-106.667
	c0-2.56,1.707-4.267,4.267-4.267h61.44L51.367,5.455c0-0.853-0.853-0.853-0.853-1.707c0-1.707,0.853-3.413,2.56-3.413
	c1.707-0.853,4.267,0,5.973,1.707l50.347,99.84h287.573c2.56,0,4.267,1.707,4.267,4.267c0,64.853-34.987,106.667-89.6,106.667
	c-2.56,0-6.827,6.827-10.24,14.507c-10.24,19.627-27.307,52.053-79.36,53.76v213.333h72.533c2.56,0,4.267,1.707,4.267,4.267
	C298.834,501.242,296.274,502.948,293.714,502.948z M53.927,161.615c13.653,27.307,37.547,42.667,69.12,42.667
	c7.68,0,12.8,8.533,17.92,18.773c10.24,19.627,26.453,49.493,75.947,49.493c49.493,0,65.707-29.867,75.947-49.493
	c5.973-10.24,10.24-18.773,17.92-18.773c47.787,0,79.36-36.693,81.067-93.867H105.981l0,0h-64c0,16.213,3.413,29.867,7.68,42.667
	h47.787c2.56,0,4.267,1.707,4.267,4.267c0,2.56-1.707,4.267-4.267,4.267H53.927z M221.181,246.948c-5.12,0-8.533-3.413-8.533-8.533
	s3.413-8.533,8.533-8.533s8.533,3.413,8.533,8.533S226.301,246.948,221.181,246.948z M174.247,229.881
	c-1.707,0-2.56-0.853-3.413-1.707l-51.2-85.333c0-0.853-0.853-1.707-0.853-2.56c0-1.707,0.853-2.56,1.707-3.413
	c1.707-0.853,4.267-0.853,5.973,1.707l9.387,15.36h209.067c2.56,0,4.267,1.707,4.267,4.267s-1.707,4.267-4.267,4.267H140.968
	l36.693,61.44c0,0.853,0.853,1.707,0.853,2.56c0,1.707-0.853,2.56-1.707,3.413C175.954,229.881,175.101,229.881,174.247,229.881z
	 M246.781,204.281c-5.12,0-8.533-3.413-8.533-8.533s3.413-8.533,8.533-8.533s8.533,3.413,8.533,8.533
	S251.901,204.281,246.781,204.281z M413.181,176.975c-1.707,0-3.413-1.707-4.267-3.413c-0.853-2.56,0.853-4.267,3.413-5.12
	c10.24-2.56,18.773-7.68,26.453-13.653l-21.333-21.333c-0.853-0.853-0.853-1.707-0.853-3.413s0-2.56,0.853-3.413
	c1.707-1.707,4.267-1.707,5.973,0l21.333,21.333c10.24-11.093,16.213-26.453,16.213-41.813c0-16.213-5.973-30.72-16.213-41.813
	l-21.333,21.333c-1.707,1.707-4.267,1.707-5.973,0c-0.853-0.853-0.853-1.707-0.853-3.413s0-2.56,0.853-3.413l21.333-21.333
	c-11.093-10.24-25.6-16.213-41.813-16.213c-15.36,0-30.72,5.973-41.813,16.213l21.333,21.333c0.853,0.853,0.853,1.707,0.853,3.413
	s0,2.56-0.853,3.413c-1.707,1.707-4.267,1.707-5.973,0l-21.333-21.333c-4.267,4.267-6.827,9.387-9.387,14.507
	c-0.853,2.56-3.413,3.413-5.973,1.707c-1.707-0.853-3.413-3.413-1.707-5.973c3.413-7.68,8.533-14.507,13.653-19.627l0,0
	c0,0,0,0,0.853,0c13.653-12.8,31.573-20.48,51.2-20.48c19.627,0,37.547,7.68,51.2,20.48l0,0l0,0c12.8,12.8,20.48,30.72,20.48,51.2
	c0,33.28-22.187,62.293-54.613,69.973C414.034,176.975,413.181,176.975,413.181,176.975z"/>
</svg>